<svg width="29" height="28" viewBox="0 0 29 28" fill="none" xmlns="http://www.w3.org/2000/svg">
<path d="M5.25801 19.1975C5.89501 21.7443 6.21351 23.0172 7.16201 23.7592C8.11167 24.5 9.42417 24.5 12.0492 24.5H17.4508C20.0758 24.5 21.3883 24.5 22.3392 23.7592C23.2877 23.0172 23.6062 21.7443 24.242 19.1975C25.243 15.1935 25.7435 13.1927 24.6935 11.8463C23.6423 10.5 21.5773 10.5 17.452 10.5H12.048C7.92034 10.5 5.85767 10.5 4.80651 11.8463C4.18934 12.6362 4.10651 13.6523 4.34684 15.1667" stroke="#BDBDBD" stroke-width="1.5" stroke-linecap="round"/>
<path d="M23.5 11.0832L22.6717 8.044C22.352 6.8715 22.1922 6.28584 21.8643 5.84367C21.5375 5.40438 21.0935 5.06597 20.5833 4.86717C20.07 4.6665 19.4633 4.6665 18.25 4.6665M6 11.0832L6.82833 8.044C7.148 6.8715 7.30783 6.28584 7.63567 5.84367C7.96254 5.40438 8.40647 5.06597 8.91667 4.86717C9.43 4.6665 10.0367 4.6665 11.25 4.6665" stroke="#BDBDBD" stroke-width="1.5"/>
<path d="M11.25 4.66667C11.25 4.35725 11.3729 4.0605 11.5917 3.84171C11.8105 3.62292 12.1072 3.5 12.4167 3.5H17.0833C17.3928 3.5 17.6895 3.62292 17.9083 3.84171C18.1271 4.0605 18.25 4.35725 18.25 4.66667C18.25 4.97609 18.1271 5.27283 17.9083 5.49162C17.6895 5.71042 17.3928 5.83333 17.0833 5.83333H12.4167C12.1072 5.83333 11.8105 5.71042 11.5917 5.49162C11.3729 5.27283 11.25 4.97609 11.25 4.66667Z" stroke="#BDBDBD" stroke-width="1.5"/>
</svg>
