<svg width="29" height="28" viewBox="0 0 29 28" fill="none" xmlns="http://www.w3.org/2000/svg">
<path d="M4 16.3335V11.6668C4 7.26733 4 5.067 5.36733 3.70083C6.7335 2.3335 8.93383 2.3335 13.3333 2.3335H15.6667C20.0662 2.3335 22.2665 2.3335 23.6327 3.70083C24.3957 4.46266 24.7328 5.4835 24.881 7.00016M25 11.6668V16.3335C25 20.733 25 22.9333 23.6327 24.2995C22.2665 25.6668 20.0662 25.6668 15.6667 25.6668H13.3333C8.93383 25.6668 6.7335 25.6668 5.36733 24.2995C4.60433 23.5377 4.26717 22.5168 4.119 21.0002M9.83333 16.3335H15.6667M9.83333 11.6668H11M19.1667 11.6668H14.5" stroke="#BDBDBD" stroke-width="1.75" stroke-linecap="round"/>
</svg>
