<svg width="29" height="28" viewBox="0 0 29 28" fill="none" xmlns="http://www.w3.org/2000/svg">
<path d="M19.7188 3.5C17.4602 3.5 15.4827 4.47125 14.25 6.11297C13.0173 4.47125 11.0398 3.5 8.78125 3.5C6.98337 3.50203 5.25971 4.21713 3.98842 5.48842C2.71713 6.75971 2.00203 8.48337 2 10.2812C2 17.9375 13.352 24.1347 13.8355 24.3906C13.9629 24.4592 14.1053 24.495 14.25 24.495C14.3947 24.495 14.5371 24.4592 14.6645 24.3906C15.148 24.1347 26.5 17.9375 26.5 10.2812C26.498 8.48337 25.7829 6.75971 24.5116 5.48842C23.2403 4.21713 21.5166 3.50203 19.7188 3.5ZM14.25 22.6187C12.2528 21.455 3.75 16.1536 3.75 10.2812C3.75174 8.94741 4.28237 7.6687 5.22554 6.72554C6.1687 5.78237 7.44741 5.25174 8.78125 5.25C10.9086 5.25 12.6947 6.38312 13.4406 8.20312C13.5065 8.36361 13.6187 8.50087 13.7628 8.59747C13.9069 8.69408 14.0765 8.74565 14.25 8.74565C14.4235 8.74565 14.5931 8.69408 14.7372 8.59747C14.8813 8.50087 14.9935 8.36361 15.0594 8.20312C15.8053 6.37984 17.5914 5.25 19.7188 5.25C21.0526 5.25174 22.3313 5.78237 23.2745 6.72554C24.2176 7.6687 24.7483 8.94741 24.75 10.2812C24.75 16.1448 16.245 21.4539 14.25 22.6187Z" fill="#BDBDBD"/>
</svg>
